<mxfile host="app.diagrams.net" modified="2021-11-09T00:02:34.864Z" agent="5.0 (Windows NT 10.0; Win64; x64) AppleWebKit/537.36 (KHTML, like Gecko) Chrome/95.0.4638.69 Safari/537.36" etag="9PopKNCPilX3-DeN8Oz8" version="15.7.0" type="github">
  <diagram id="C5RBs43oDa-KdzZeNtuy" name="Page-1">
    <mxGraphModel dx="2249" dy="766" grid="1" gridSize="10" guides="1" tooltips="1" connect="1" arrows="1" fold="1" page="1" pageScale="1" pageWidth="827" pageHeight="1169" math="0" shadow="0">
      <root>
        <mxCell id="WIyWlLk6GJQsqaUBKTNV-0" />
        <mxCell id="WIyWlLk6GJQsqaUBKTNV-1" parent="WIyWlLk6GJQsqaUBKTNV-0" />
        <mxCell id="aeuVavkQQn0gSLbou3nG-4" value="Play" style="swimlane;fontStyle=1;align=center;verticalAlign=top;childLayout=stackLayout;horizontal=1;startSize=26;horizontalStack=0;resizeParent=1;resizeParentMax=0;resizeLast=0;collapsible=1;marginBottom=0;" parent="WIyWlLk6GJQsqaUBKTNV-1" vertex="1">
          <mxGeometry x="-95" y="170" width="250" height="250" as="geometry" />
        </mxCell>
        <mxCell id="aeuVavkQQn0gSLbou3nG-5" value="-ArrayList&lt;Player&gt; players&#xa;-board : Board&#xa;-playerNumber : int&#xa;-gameEnd : boolean&#xa;" style="text;strokeColor=none;fillColor=none;align=left;verticalAlign=top;spacingLeft=4;spacingRight=4;overflow=hidden;rotatable=0;points=[[0,0.5],[1,0.5]];portConstraint=eastwest;" parent="aeuVavkQQn0gSLbou3nG-4" vertex="1">
          <mxGeometry y="26" width="250" height="64" as="geometry" />
        </mxCell>
        <mxCell id="aeuVavkQQn0gSLbou3nG-6" value="" style="line;strokeWidth=1;fillColor=none;align=left;verticalAlign=middle;spacingTop=-1;spacingLeft=3;spacingRight=3;rotatable=0;labelPosition=right;points=[];portConstraint=eastwest;" parent="aeuVavkQQn0gSLbou3nG-4" vertex="1">
          <mxGeometry y="90" width="250" height="8" as="geometry" />
        </mxCell>
        <mxCell id="aeuVavkQQn0gSLbou3nG-7" value="+Play()&lt;br&gt;+welcome() : int&lt;br&gt;+playerList(players : int) : ArrayList&amp;lt;Player&amp;gt;&lt;br&gt;+diceCommand(p : Player) : int&lt;br&gt;+playersCommand(p : Player) : int&lt;br&gt;+playersTurn() : void&lt;br&gt;-isBankrupt(p : Player) : boolean&lt;br&gt;-printStatus(p : Player) : void&lt;br&gt;+addPlayer(p : Player) : void&lt;br&gt;&lt;u&gt;+main(String args[]) : void&lt;/u&gt;" style="text;strokeColor=none;fillColor=none;align=left;verticalAlign=top;spacingLeft=4;spacingRight=4;overflow=hidden;rotatable=0;points=[[0,0.5],[1,0.5]];portConstraint=eastwest;fontStyle=0;html=1;" parent="aeuVavkQQn0gSLbou3nG-4" vertex="1">
          <mxGeometry y="98" width="250" height="152" as="geometry" />
        </mxCell>
        <mxCell id="aeuVavkQQn0gSLbou3nG-8" value="Player" style="swimlane;fontStyle=1;align=center;verticalAlign=top;childLayout=stackLayout;horizontal=1;startSize=26;horizontalStack=0;resizeParent=1;resizeParentMax=0;resizeLast=0;collapsible=1;marginBottom=0;" parent="WIyWlLk6GJQsqaUBKTNV-1" vertex="1">
          <mxGeometry x="193" y="520" width="220" height="240" as="geometry" />
        </mxCell>
        <mxCell id="aeuVavkQQn0gSLbou3nG-9" value="-playerName : String&#xa;-totalMoney : double&#xa;-position : int&#xa;-properties : ArrayList&lt;Property&gt;" style="text;strokeColor=none;fillColor=none;align=left;verticalAlign=top;spacingLeft=4;spacingRight=4;overflow=hidden;rotatable=0;points=[[0,0.5],[1,0.5]];portConstraint=eastwest;" parent="aeuVavkQQn0gSLbou3nG-8" vertex="1">
          <mxGeometry y="26" width="220" height="64" as="geometry" />
        </mxCell>
        <mxCell id="aeuVavkQQn0gSLbou3nG-10" value="" style="line;strokeWidth=1;fillColor=none;align=left;verticalAlign=middle;spacingTop=-1;spacingLeft=3;spacingRight=3;rotatable=0;labelPosition=right;points=[];portConstraint=eastwest;" parent="aeuVavkQQn0gSLbou3nG-8" vertex="1">
          <mxGeometry y="90" width="220" height="8" as="geometry" />
        </mxCell>
        <mxCell id="aeuVavkQQn0gSLbou3nG-11" value="+Player()&#xa;+getName() : String&#xa;+setName() : String&#xa;+addMoney(addMoney : int) : void&#xa;+setMoney(money : double) : void&#xa;+getMoney() : double&#xa;+getPosition() : int&#xa;+setPosition(position : int) : void&#xa;+buyProperty(property : Property) : void" style="text;strokeColor=none;fillColor=none;align=left;verticalAlign=top;spacingLeft=4;spacingRight=4;overflow=hidden;rotatable=0;points=[[0,0.5],[1,0.5]];portConstraint=eastwest;" parent="aeuVavkQQn0gSLbou3nG-8" vertex="1">
          <mxGeometry y="98" width="220" height="142" as="geometry" />
        </mxCell>
        <mxCell id="aeuVavkQQn0gSLbou3nG-12" value="Dice" style="swimlane;fontStyle=1;align=center;verticalAlign=top;childLayout=stackLayout;horizontal=1;startSize=26;horizontalStack=0;resizeParent=1;resizeParentMax=0;resizeLast=0;collapsible=1;marginBottom=0;" parent="WIyWlLk6GJQsqaUBKTNV-1" vertex="1">
          <mxGeometry x="334" y="260" width="160" height="120" as="geometry" />
        </mxCell>
        <mxCell id="aeuVavkQQn0gSLbou3nG-13" value="-die1 : int&#xa;-die2 : int" style="text;strokeColor=none;fillColor=none;align=left;verticalAlign=top;spacingLeft=4;spacingRight=4;overflow=hidden;rotatable=0;points=[[0,0.5],[1,0.5]];portConstraint=eastwest;" parent="aeuVavkQQn0gSLbou3nG-12" vertex="1">
          <mxGeometry y="26" width="160" height="44" as="geometry" />
        </mxCell>
        <mxCell id="aeuVavkQQn0gSLbou3nG-14" value="" style="line;strokeWidth=1;fillColor=none;align=left;verticalAlign=middle;spacingTop=-1;spacingLeft=3;spacingRight=3;rotatable=0;labelPosition=right;points=[];portConstraint=eastwest;" parent="aeuVavkQQn0gSLbou3nG-12" vertex="1">
          <mxGeometry y="70" width="160" height="8" as="geometry" />
        </mxCell>
        <mxCell id="aeuVavkQQn0gSLbou3nG-15" value="+roll() : int&#xa;+rolledDouble() : boolean" style="text;strokeColor=none;fillColor=none;align=left;verticalAlign=top;spacingLeft=4;spacingRight=4;overflow=hidden;rotatable=0;points=[[0,0.5],[1,0.5]];portConstraint=eastwest;" parent="aeuVavkQQn0gSLbou3nG-12" vertex="1">
          <mxGeometry y="78" width="160" height="42" as="geometry" />
        </mxCell>
        <mxCell id="aeuVavkQQn0gSLbou3nG-16" value="Property" style="swimlane;fontStyle=1;align=center;verticalAlign=top;childLayout=stackLayout;horizontal=1;startSize=26;horizontalStack=0;resizeParent=1;resizeParentMax=0;resizeLast=0;collapsible=1;marginBottom=0;" parent="WIyWlLk6GJQsqaUBKTNV-1" vertex="1">
          <mxGeometry x="-610" y="140" width="370" height="290" as="geometry" />
        </mxCell>
        <mxCell id="aeuVavkQQn0gSLbou3nG-17" value="-propertyName : String&#xa;-propertyCost : double&#xa;-rentCost : double&#xa;-isOwned : boolean&#xa;-propertyColor : String&#xa;-propertyPosition : int&#xa;-currentPropertyOwner : String" style="text;strokeColor=none;fillColor=none;align=left;verticalAlign=top;spacingLeft=4;spacingRight=4;overflow=hidden;rotatable=0;points=[[0,0.5],[1,0.5]];portConstraint=eastwest;" parent="aeuVavkQQn0gSLbou3nG-16" vertex="1">
          <mxGeometry y="26" width="370" height="104" as="geometry" />
        </mxCell>
        <mxCell id="aeuVavkQQn0gSLbou3nG-18" value="" style="line;strokeWidth=1;fillColor=none;align=left;verticalAlign=middle;spacingTop=-1;spacingLeft=3;spacingRight=3;rotatable=0;labelPosition=right;points=[];portConstraint=eastwest;" parent="aeuVavkQQn0gSLbou3nG-16" vertex="1">
          <mxGeometry y="130" width="370" height="8" as="geometry" />
        </mxCell>
        <mxCell id="aeuVavkQQn0gSLbou3nG-19" value="+Property()&#xa;+getPropertyName() : String&#xa;+getPropertyCost() : double&#xa;+getRentCost() : double&#xa;+isOwned() : boolean&#xa;+setOwned(isOwned : boolean) : void&#xa;+getPropertyColor() : String&#xa;+getPropertyPosition() : int&#xa;+getCurrentPropertyOwner() : String&#xa;+setCurrentPropertyOwner(currentPropertyOwner : String) : String&#xa;" style="text;strokeColor=none;fillColor=none;align=left;verticalAlign=top;spacingLeft=4;spacingRight=4;overflow=hidden;rotatable=0;points=[[0,0.5],[1,0.5]];portConstraint=eastwest;" parent="aeuVavkQQn0gSLbou3nG-16" vertex="1">
          <mxGeometry y="138" width="370" height="152" as="geometry" />
        </mxCell>
        <mxCell id="koVW63xP8tt8F2L2rnIr-12" value="Board" style="swimlane;fontStyle=1;align=center;verticalAlign=top;childLayout=stackLayout;horizontal=1;startSize=26;horizontalStack=0;resizeParent=1;resizeParentMax=0;resizeLast=0;collapsible=1;marginBottom=0;" parent="WIyWlLk6GJQsqaUBKTNV-1" vertex="1">
          <mxGeometry x="-270" y="590" width="270" height="680" as="geometry" />
        </mxCell>
        <mxCell id="koVW63xP8tt8F2L2rnIr-13" value="~go : Property {readOnly}&#xa;~kent : Property {readOnly}&#xa;~chest1 : Property {readOnly}&#xa;~chapel : Property {readOnly}&#xa;~tax1 : Property {readOnly}&#xa;~station1 : Property {readOnly}&#xa;~angel : Property {readOnly}&#xa;~chance1 : Property {readOnly}&#xa;~euston : Property {readOnly}&#xa;~pentonville : Property {readOnly}&#xa;~jail : Property {readOnly}&#xa;&#xa;~mall : Property {readOnly}&#xa;~company : Property {readOnly}&#xa;~whitehall : Property {readOnly}&#xa;~northave : Property {readOnly}&#xa;~station2 : Property {readOnly}&#xa;~bow : Property {readOnly}&#xa;~chest2 : Property {readOnly}&#xa;~marlborough : Property {readOnly}&#xa;~vine : Property {readOnly}&#xa;~parking : Property {readOnly}&#xa;&#xa;~strand : Property {readOnly}&#xa;~chance2 : Property {readOnly}&#xa;~fleet : Property {readOnly}&#xa;~trafalgar : Property {readOnly}&#xa;~station3 : Property {readOnly}&#xa;~leicester : Property {readOnly}&#xa;~ceventry : Property {readOnly}&#xa;~water : Property {readOnly}&#xa;~picadilly : Property {readOnly}&#xa;~go_jail : Property {readOnly}&#xa;&#xa;~regent : Property {readOnly}&#xa;~oxford : Property {readOnly}&#xa;~chest3 : Property {readOnly}&#xa;~bond : Property {readOnly}&#xa;~station4 : Property {readOnly}&#xa;~chance3 : Property {readOnly}&#xa;~park : Property {readOnly}&#xa;~tax2 : Property {readOnly}&#xa;~mayfair : Property {readOnly}&#xa;&#xa;" style="text;strokeColor=none;fillColor=none;align=left;verticalAlign=top;spacingLeft=4;spacingRight=4;overflow=hidden;rotatable=0;points=[[0,0.5],[1,0.5]];portConstraint=eastwest;fontStyle=4" parent="koVW63xP8tt8F2L2rnIr-12" vertex="1">
          <mxGeometry y="26" width="270" height="614" as="geometry" />
        </mxCell>
        <mxCell id="koVW63xP8tt8F2L2rnIr-14" value="" style="line;strokeWidth=1;fillColor=none;align=left;verticalAlign=middle;spacingTop=-1;spacingLeft=3;spacingRight=3;rotatable=0;labelPosition=right;points=[];portConstraint=eastwest;" parent="koVW63xP8tt8F2L2rnIr-12" vertex="1">
          <mxGeometry y="640" width="270" height="8" as="geometry" />
        </mxCell>
        <mxCell id="koVW63xP8tt8F2L2rnIr-15" value="+createBoard() : HashMap" style="text;strokeColor=none;fillColor=none;align=left;verticalAlign=top;spacingLeft=4;spacingRight=4;overflow=hidden;rotatable=0;points=[[0,0.5],[1,0.5]];portConstraint=eastwest;fontStyle=4" parent="koVW63xP8tt8F2L2rnIr-12" vertex="1">
          <mxGeometry y="648" width="270" height="32" as="geometry" />
        </mxCell>
        <mxCell id="hQIseMV1qKWJgG8f4cSB-1" value="" style="endArrow=diamondThin;endFill=1;endSize=24;html=1;rounded=0;exitX=0.314;exitY=-0.001;exitDx=0;exitDy=0;exitPerimeter=0;" parent="WIyWlLk6GJQsqaUBKTNV-1" source="koVW63xP8tt8F2L2rnIr-12" target="aeuVavkQQn0gSLbou3nG-19" edge="1">
          <mxGeometry width="160" relative="1" as="geometry">
            <mxPoint x="-20" y="460" as="sourcePoint" />
            <mxPoint x="140" y="460" as="targetPoint" />
          </mxGeometry>
        </mxCell>
        <mxCell id="hQIseMV1qKWJgG8f4cSB-2" value="" style="endArrow=diamondThin;endFill=1;endSize=24;html=1;rounded=0;entryX=0.016;entryY=-0.005;entryDx=0;entryDy=0;entryPerimeter=0;" parent="WIyWlLk6GJQsqaUBKTNV-1" source="aeuVavkQQn0gSLbou3nG-17" target="aeuVavkQQn0gSLbou3nG-5" edge="1">
          <mxGeometry width="160" relative="1" as="geometry">
            <mxPoint x="-20" y="460" as="sourcePoint" />
            <mxPoint x="140" y="460" as="targetPoint" />
          </mxGeometry>
        </mxCell>
        <mxCell id="hQIseMV1qKWJgG8f4cSB-6" value="" style="endArrow=diamondThin;endFill=1;endSize=24;html=1;rounded=0;entryX=0.488;entryY=1;entryDx=0;entryDy=0;entryPerimeter=0;" parent="WIyWlLk6GJQsqaUBKTNV-1" source="koVW63xP8tt8F2L2rnIr-12" target="aeuVavkQQn0gSLbou3nG-7" edge="1">
          <mxGeometry width="160" relative="1" as="geometry">
            <mxPoint x="-50" y="340" as="sourcePoint" />
            <mxPoint x="40" y="440" as="targetPoint" />
          </mxGeometry>
        </mxCell>
        <mxCell id="hQIseMV1qKWJgG8f4cSB-7" value="" style="endArrow=diamondThin;endFill=0;endSize=24;html=1;rounded=0;exitX=0.142;exitY=0.007;exitDx=0;exitDy=0;exitPerimeter=0;" parent="WIyWlLk6GJQsqaUBKTNV-1" source="aeuVavkQQn0gSLbou3nG-8" target="aeuVavkQQn0gSLbou3nG-7" edge="1">
          <mxGeometry width="160" relative="1" as="geometry">
            <mxPoint x="-50" y="580" as="sourcePoint" />
            <mxPoint x="110" y="580" as="targetPoint" />
          </mxGeometry>
        </mxCell>
        <mxCell id="aEWXYHwMm3jFHQqLhhgN-0" value="MonopolyFrame" style="swimlane;fontStyle=1;align=center;verticalAlign=top;childLayout=stackLayout;horizontal=1;startSize=26;horizontalStack=0;resizeParent=1;resizeParentMax=0;resizeLast=0;collapsible=1;marginBottom=0;" parent="WIyWlLk6GJQsqaUBKTNV-1" vertex="1">
          <mxGeometry x="-530" y="480" width="180" height="84" as="geometry" />
        </mxCell>
        <mxCell id="aEWXYHwMm3jFHQqLhhgN-2" value="" style="line;strokeWidth=1;fillColor=none;align=left;verticalAlign=middle;spacingTop=-1;spacingLeft=3;spacingRight=3;rotatable=0;labelPosition=right;points=[];portConstraint=eastwest;" parent="aEWXYHwMm3jFHQqLhhgN-0" vertex="1">
          <mxGeometry y="26" width="180" height="8" as="geometry" />
        </mxCell>
        <mxCell id="aEWXYHwMm3jFHQqLhhgN-3" value="+MonopolyFrame()&#xa;+createSouthPanel() : JPanel&#xa;+playerStatusPopUp() : JPanel" style="text;strokeColor=none;fillColor=none;align=left;verticalAlign=top;spacingLeft=4;spacingRight=4;overflow=hidden;rotatable=0;points=[[0,0.5],[1,0.5]];portConstraint=eastwest;" parent="aEWXYHwMm3jFHQqLhhgN-0" vertex="1">
          <mxGeometry y="34" width="180" height="50" as="geometry" />
        </mxCell>
        <mxCell id="aEWXYHwMm3jFHQqLhhgN-4" value="JTextAreaOutputStream" style="swimlane;fontStyle=1;align=center;verticalAlign=top;childLayout=stackLayout;horizontal=1;startSize=26;horizontalStack=0;resizeParent=1;resizeParentMax=0;resizeLast=0;collapsible=1;marginBottom=0;" parent="WIyWlLk6GJQsqaUBKTNV-1" vertex="1">
          <mxGeometry x="-630" y="710" width="280" height="110" as="geometry" />
        </mxCell>
        <mxCell id="aEWXYHwMm3jFHQqLhhgN-5" value="-playerTextArea : JTextArea" style="text;strokeColor=none;fillColor=none;align=left;verticalAlign=top;spacingLeft=4;spacingRight=4;overflow=hidden;rotatable=0;points=[[0,0.5],[1,0.5]];portConstraint=eastwest;fontStyle=4" parent="aEWXYHwMm3jFHQqLhhgN-4" vertex="1">
          <mxGeometry y="26" width="280" height="26" as="geometry" />
        </mxCell>
        <mxCell id="aEWXYHwMm3jFHQqLhhgN-6" value="" style="line;strokeWidth=1;fillColor=none;align=left;verticalAlign=middle;spacingTop=-1;spacingLeft=3;spacingRight=3;rotatable=0;labelPosition=right;points=[];portConstraint=eastwest;" parent="aEWXYHwMm3jFHQqLhhgN-4" vertex="1">
          <mxGeometry y="52" width="280" height="8" as="geometry" />
        </mxCell>
        <mxCell id="aEWXYHwMm3jFHQqLhhgN-7" value="+JTextAreaOutputStream(destination : JTextArea)&#xa;+write(buffer : byte, offset : int, length : int) : void&#xa;+write(b : int) : void" style="text;strokeColor=none;fillColor=none;align=left;verticalAlign=top;spacingLeft=4;spacingRight=4;overflow=hidden;rotatable=0;points=[[0,0.5],[1,0.5]];portConstraint=eastwest;" parent="aEWXYHwMm3jFHQqLhhgN-4" vertex="1">
          <mxGeometry y="60" width="280" height="50" as="geometry" />
        </mxCell>
        <mxCell id="aEWXYHwMm3jFHQqLhhgN-9" value="" style="endArrow=diamondThin;endFill=0;endSize=24;html=1;rounded=0;entryX=1;entryY=0.5;entryDx=0;entryDy=0;exitX=0;exitY=0.5;exitDx=0;exitDy=0;" parent="WIyWlLk6GJQsqaUBKTNV-1" source="aeuVavkQQn0gSLbou3nG-11" target="aeuVavkQQn0gSLbou3nG-19" edge="1">
          <mxGeometry width="160" relative="1" as="geometry">
            <mxPoint x="200" y="640" as="sourcePoint" />
            <mxPoint x="140" y="490" as="targetPoint" />
          </mxGeometry>
        </mxCell>
        <mxCell id="aEWXYHwMm3jFHQqLhhgN-10" value="Use" style="endArrow=open;endSize=12;dashed=1;html=1;rounded=0;exitX=0;exitY=0.5;exitDx=0;exitDy=0;entryX=1;entryY=0.5;entryDx=0;entryDy=0;" parent="WIyWlLk6GJQsqaUBKTNV-1" source="aeuVavkQQn0gSLbou3nG-13" target="aeuVavkQQn0gSLbou3nG-5" edge="1">
          <mxGeometry width="160" relative="1" as="geometry">
            <mxPoint x="-20" y="390" as="sourcePoint" />
            <mxPoint x="200" y="270" as="targetPoint" />
          </mxGeometry>
        </mxCell>
        <mxCell id="7LOddJFUvb0nekEIbCpr-0" value="" style="endArrow=diamondThin;endFill=0;endSize=24;html=1;rounded=0;exitX=1;exitY=0.5;exitDx=0;exitDy=0;entryX=0;entryY=0.5;entryDx=0;entryDy=0;" edge="1" parent="WIyWlLk6GJQsqaUBKTNV-1" source="aEWXYHwMm3jFHQqLhhgN-3" target="aeuVavkQQn0gSLbou3nG-7">
          <mxGeometry width="160" relative="1" as="geometry">
            <mxPoint x="-420" y="390" as="sourcePoint" />
            <mxPoint x="-120" y="320" as="targetPoint" />
          </mxGeometry>
        </mxCell>
        <mxCell id="7LOddJFUvb0nekEIbCpr-1" value="" style="endArrow=diamondThin;endFill=1;endSize=24;html=1;rounded=0;exitX=0.75;exitY=0;exitDx=0;exitDy=0;" edge="1" parent="WIyWlLk6GJQsqaUBKTNV-1" source="aEWXYHwMm3jFHQqLhhgN-4" target="aEWXYHwMm3jFHQqLhhgN-3">
          <mxGeometry width="160" relative="1" as="geometry">
            <mxPoint x="-380" y="490" as="sourcePoint" />
            <mxPoint x="-220" y="490" as="targetPoint" />
          </mxGeometry>
        </mxCell>
      </root>
    </mxGraphModel>
  </diagram>
</mxfile>
